<?xml version="1.0" standalone="no"?>
<!DOCTYPE svg PUBLIC "-//W3C//DTD SVG 20010904//EN"
 "http://www.w3.org/TR/2001/REC-SVG-20010904/DTD/svg10.dtd">
<svg version="1.0" xmlns="http://www.w3.org/2000/svg"
 width="700.000000pt" height="700.000000pt" viewBox="0 0 700.000000 700.000000"
 preserveAspectRatio="xMidYMid meet">
<metadata>
Created by potrace 1.11, written by Peter Selinger 2001-2013
</metadata>
<g transform="translate(0.000000,700.000000) scale(0.100000,-0.100000)"
fill="#000000" stroke="none">
<path d="M3479 6566 c-2 -2 -65 -6 -139 -10 -74 -3 -144 -8 -155 -10 -17 -3
-124 -17 -160 -21 -92 -9 -468 -103 -540 -134 -11 -5 -58 -24 -105 -42 -92
-35 -311 -139 -400 -190 -285 -162 -608 -432 -814 -679 -39 -47 -74 -87 -77
-90 -3 -3 -41 -54 -83 -115 -244 -345 -408 -715 -496 -1119 -30 -135 -33 -153
-49 -296 -26 -219 -29 -525 -7 -668 3 -20 8 -62 11 -92 9 -86 43 -254 76 -380
17 -63 32 -121 34 -130 2 -8 20 -60 40 -115 251 -693 722 -1256 1367 -1633 85
-50 279 -145 283 -140 2 2 5 95 8 208 5 182 13 273 31 375 3 17 8 44 11 60 6
36 28 130 239 1024 l163 694 -28 82 c-52 149 -62 216 -62 400 0 142 3 184 21
253 45 174 102 281 207 386 106 107 219 156 361 157 201 2 354 -129 394 -338
12 -60 9 -230 -5 -298 -20 -98 -57 -232 -132 -485 -47 -157 -96 -325 -108
-375 -24 -96 -30 -220 -13 -283 44 -166 183 -296 366 -342 48 -12 190 -12 237
1 16 4 43 10 58 13 50 9 171 70 237 120 80 61 137 120 204 211 70 97 70 96
131 220 92 188 166 435 190 635 3 30 8 62 10 70 17 64 25 409 12 515 -70 552
-451 913 -1047 992 -111 14 -418 7 -505 -12 -11 -3 -31 -7 -45 -9 -480 -89
-882 -417 -1065 -871 -37 -91 -79 -243 -90 -325 -3 -25 -8 -58 -11 -75 -8 -47
-7 -254 1 -315 21 -157 78 -295 177 -427 32 -43 61 -93 64 -111 8 -42 -66
-339 -93 -376 -37 -50 -89 -48 -197 8 -174 89 -309 231 -405 422 -41 82 -95
233 -106 294 -3 19 -10 51 -15 70 -28 108 -37 443 -14 580 79 487 334 917 726
1223 241 188 595 350 878 400 14 3 52 10 85 16 152 30 286 39 500 36 121 -2
232 -6 247 -9 16 -2 47 -7 70 -11 24 -4 56 -9 71 -11 67 -11 203 -46 289 -75
469 -158 853 -483 1062 -899 40 -79 112 -262 120 -302 2 -13 9 -41 15 -63 6
-22 13 -58 16 -80 3 -22 11 -67 16 -100 10 -58 15 -418 5 -433 -2 -4 -7 -43
-10 -87 -6 -75 -9 -102 -21 -165 -3 -14 -8 -43 -11 -65 -19 -129 -98 -383
-168 -542 -93 -211 -254 -447 -391 -574 -22 -20 -52 -48 -67 -62 -164 -152
-430 -288 -653 -333 -204 -41 -414 -42 -565 -1 -203 55 -368 157 -465 288
l-42 57 -32 -127 c-95 -371 -153 -598 -156 -611 -49 -211 -168 -490 -303 -705
-17 -27 -30 -50 -29 -51 3 -4 201 -56 227 -60 14 -3 63 -11 110 -20 88 -16
106 -19 205 -29 269 -28 585 -20 815 21 154 27 194 35 200 39 4 2 21 7 38 10
49 8 257 73 362 112 558 209 1077 615 1423 1116 58 83 76 112 141 220 184 309
316 696 377 1097 33 218 33 654 -1 865 -54 347 -135 610 -280 910 -332 686
-930 1235 -1650 1513 -89 34 -314 106 -368 117 -10 2 -62 12 -117 24 -120 24
-143 28 -220 37 -33 3 -63 8 -66 10 -3 2 -80 6 -170 10 -90 3 -167 8 -170 10
-3 2 -8 2 -10 0z"/>
</g>
</svg>
